<mxfile host="app.diagrams.net" modified="2023-07-15T17:21:11.769Z" agent="Mozilla/5.0 (Windows NT 10.0; Win64; x64; rv:109.0) Gecko/20100101 Firefox/116.0" etag="PRdGZ_BFeSKYnPhWMoVG" version="21.6.2" type="github">
  <diagram id="C5RBs43oDa-KdzZeNtuy" name="Page-1">
    <mxGraphModel dx="1228" dy="655" grid="1" gridSize="10" guides="1" tooltips="1" connect="1" arrows="1" fold="1" page="1" pageScale="1" pageWidth="2339" pageHeight="3300" math="0" shadow="0">
      <root>
        <mxCell id="WIyWlLk6GJQsqaUBKTNV-0" />
        <mxCell id="WIyWlLk6GJQsqaUBKTNV-1" parent="WIyWlLk6GJQsqaUBKTNV-0" />
        <mxCell id="KU54Ymaz2hn-1vnR_D7c-0" value="User" style="swimlane;fontStyle=2;align=center;verticalAlign=top;childLayout=stackLayout;horizontal=1;startSize=26;horizontalStack=0;resizeParent=1;resizeLast=0;collapsible=1;marginBottom=0;rounded=0;shadow=0;strokeWidth=1;" vertex="1" parent="WIyWlLk6GJQsqaUBKTNV-1">
          <mxGeometry x="240" y="70" width="160" height="270" as="geometry">
            <mxRectangle x="230" y="140" width="160" height="26" as="alternateBounds" />
          </mxGeometry>
        </mxCell>
        <mxCell id="KU54Ymaz2hn-1vnR_D7c-1" value="user_id" style="text;align=left;verticalAlign=top;spacingLeft=4;spacingRight=4;overflow=hidden;rotatable=0;points=[[0,0.5],[1,0.5]];portConstraint=eastwest;" vertex="1" parent="KU54Ymaz2hn-1vnR_D7c-0">
          <mxGeometry y="26" width="160" height="26" as="geometry" />
        </mxCell>
        <mxCell id="KU54Ymaz2hn-1vnR_D7c-2" value="username/email" style="text;align=left;verticalAlign=top;spacingLeft=4;spacingRight=4;overflow=hidden;rotatable=0;points=[[0,0.5],[1,0.5]];portConstraint=eastwest;rounded=0;shadow=0;html=0;strokeColor=default;" vertex="1" parent="KU54Ymaz2hn-1vnR_D7c-0">
          <mxGeometry y="52" width="160" height="26" as="geometry" />
        </mxCell>
        <mxCell id="KU54Ymaz2hn-1vnR_D7c-3" value="nickname" style="text;align=left;verticalAlign=top;spacingLeft=4;spacingRight=4;overflow=hidden;rotatable=0;points=[[0,0.5],[1,0.5]];portConstraint=eastwest;rounded=0;shadow=0;html=0;strokeColor=default;" vertex="1" parent="KU54Ymaz2hn-1vnR_D7c-0">
          <mxGeometry y="78" width="160" height="26" as="geometry" />
        </mxCell>
        <mxCell id="KU54Ymaz2hn-1vnR_D7c-6" value="last_login" style="text;align=left;verticalAlign=top;spacingLeft=4;spacingRight=4;overflow=hidden;rotatable=0;points=[[0,0.5],[1,0.5]];portConstraint=eastwest;rounded=0;shadow=0;html=0;strokeColor=default;" vertex="1" parent="KU54Ymaz2hn-1vnR_D7c-0">
          <mxGeometry y="104" width="160" height="26" as="geometry" />
        </mxCell>
        <mxCell id="KU54Ymaz2hn-1vnR_D7c-7" value="create_time" style="text;align=left;verticalAlign=top;spacingLeft=4;spacingRight=4;overflow=hidden;rotatable=0;points=[[0,0.5],[1,0.5]];portConstraint=eastwest;rounded=0;shadow=0;html=0;strokeColor=default;" vertex="1" parent="KU54Ymaz2hn-1vnR_D7c-0">
          <mxGeometry y="130" width="160" height="26" as="geometry" />
        </mxCell>
        <mxCell id="KU54Ymaz2hn-1vnR_D7c-8" value="privileges" style="text;align=left;verticalAlign=top;spacingLeft=4;spacingRight=4;overflow=hidden;rotatable=0;points=[[0,0.5],[1,0.5]];portConstraint=eastwest;rounded=0;shadow=0;html=0;strokeColor=default;" vertex="1" parent="KU54Ymaz2hn-1vnR_D7c-0">
          <mxGeometry y="156" width="160" height="26" as="geometry" />
        </mxCell>
        <mxCell id="KU54Ymaz2hn-1vnR_D7c-18" value="permit" style="text;align=left;verticalAlign=top;spacingLeft=4;spacingRight=4;overflow=hidden;rotatable=0;points=[[0,0.5],[1,0.5]];portConstraint=eastwest;rounded=0;shadow=0;html=0;strokeColor=default;" vertex="1" parent="KU54Ymaz2hn-1vnR_D7c-0">
          <mxGeometry y="182" width="160" height="26" as="geometry" />
        </mxCell>
        <mxCell id="KU54Ymaz2hn-1vnR_D7c-46" value="user_level" style="text;align=left;verticalAlign=top;spacingLeft=4;spacingRight=4;overflow=hidden;rotatable=0;points=[[0,0.5],[1,0.5]];portConstraint=eastwest;rounded=0;shadow=0;html=0;strokeColor=default;" vertex="1" parent="KU54Ymaz2hn-1vnR_D7c-0">
          <mxGeometry y="208" width="160" height="32" as="geometry" />
        </mxCell>
        <mxCell id="KU54Ymaz2hn-1vnR_D7c-86" value="identity" style="text;align=left;verticalAlign=top;spacingLeft=4;spacingRight=4;overflow=hidden;rotatable=0;points=[[0,0.5],[1,0.5]];portConstraint=eastwest;rounded=0;shadow=0;html=0;strokeColor=none;" vertex="1" parent="KU54Ymaz2hn-1vnR_D7c-0">
          <mxGeometry y="240" width="160" height="30" as="geometry" />
        </mxCell>
        <mxCell id="KU54Ymaz2hn-1vnR_D7c-9" value="privileges" style="swimlane;fontStyle=2;align=center;verticalAlign=top;childLayout=stackLayout;horizontal=1;startSize=26;horizontalStack=0;resizeParent=1;resizeLast=0;collapsible=1;marginBottom=0;rounded=0;shadow=0;strokeWidth=1;" vertex="1" parent="WIyWlLk6GJQsqaUBKTNV-1">
          <mxGeometry x="470" y="100" width="100" height="80" as="geometry">
            <mxRectangle x="230" y="140" width="160" height="26" as="alternateBounds" />
          </mxGeometry>
        </mxCell>
        <mxCell id="KU54Ymaz2hn-1vnR_D7c-10" value="ads" style="text;align=left;verticalAlign=top;spacingLeft=4;spacingRight=4;overflow=hidden;rotatable=0;points=[[0,0.5],[1,0.5]];portConstraint=eastwest;strokeColor=default;" vertex="1" parent="KU54Ymaz2hn-1vnR_D7c-9">
          <mxGeometry y="26" width="100" height="26" as="geometry" />
        </mxCell>
        <mxCell id="KU54Ymaz2hn-1vnR_D7c-17" value="quality_stream" style="text;align=left;verticalAlign=top;spacingLeft=4;spacingRight=4;overflow=hidden;rotatable=0;points=[[0,0.5],[1,0.5]];portConstraint=eastwest;" vertex="1" parent="KU54Ymaz2hn-1vnR_D7c-9">
          <mxGeometry y="52" width="100" height="26" as="geometry" />
        </mxCell>
        <mxCell id="KU54Ymaz2hn-1vnR_D7c-19" value="permit" style="swimlane;fontStyle=2;align=center;verticalAlign=top;childLayout=stackLayout;horizontal=1;startSize=26;horizontalStack=0;resizeParent=1;resizeLast=0;collapsible=1;marginBottom=0;rounded=0;shadow=0;strokeWidth=1;" vertex="1" parent="WIyWlLk6GJQsqaUBKTNV-1">
          <mxGeometry x="500" y="240" width="120" height="130" as="geometry">
            <mxRectangle x="230" y="140" width="160" height="26" as="alternateBounds" />
          </mxGeometry>
        </mxCell>
        <mxCell id="KU54Ymaz2hn-1vnR_D7c-20" value="resolution" style="text;align=left;verticalAlign=top;spacingLeft=4;spacingRight=4;overflow=hidden;rotatable=0;points=[[0,0.5],[1,0.5]];portConstraint=eastwest;strokeColor=default;" vertex="1" parent="KU54Ymaz2hn-1vnR_D7c-19">
          <mxGeometry y="26" width="120" height="26" as="geometry" />
        </mxCell>
        <mxCell id="KU54Ymaz2hn-1vnR_D7c-21" value="android_phone_ad" style="text;align=left;verticalAlign=top;spacingLeft=4;spacingRight=4;overflow=hidden;rotatable=0;points=[[0,0.5],[1,0.5]];portConstraint=eastwest;strokeColor=default;" vertex="1" parent="KU54Ymaz2hn-1vnR_D7c-19">
          <mxGeometry y="52" width="120" height="26" as="geometry" />
        </mxCell>
        <mxCell id="KU54Ymaz2hn-1vnR_D7c-26" value="ios_phone_ad" style="text;align=left;verticalAlign=top;spacingLeft=4;spacingRight=4;overflow=hidden;rotatable=0;points=[[0,0.5],[1,0.5]];portConstraint=eastwest;strokeColor=default;" vertex="1" parent="KU54Ymaz2hn-1vnR_D7c-19">
          <mxGeometry y="78" width="120" height="26" as="geometry" />
        </mxCell>
        <mxCell id="KU54Ymaz2hn-1vnR_D7c-27" value="preview_time" style="text;align=left;verticalAlign=top;spacingLeft=4;spacingRight=4;overflow=hidden;rotatable=0;points=[[0,0.5],[1,0.5]];portConstraint=eastwest;strokeColor=default;" vertex="1" parent="KU54Ymaz2hn-1vnR_D7c-19">
          <mxGeometry y="104" width="120" height="26" as="geometry" />
        </mxCell>
        <mxCell id="KU54Ymaz2hn-1vnR_D7c-23" value="" style="endArrow=none;dashed=1;html=1;rounded=0;" edge="1" parent="WIyWlLk6GJQsqaUBKTNV-1" source="KU54Ymaz2hn-1vnR_D7c-19" target="KU54Ymaz2hn-1vnR_D7c-18">
          <mxGeometry width="50" height="50" relative="1" as="geometry">
            <mxPoint x="140" y="320" as="sourcePoint" />
            <mxPoint x="190" y="270" as="targetPoint" />
            <Array as="points">
              <mxPoint x="450" y="270" />
            </Array>
          </mxGeometry>
        </mxCell>
        <mxCell id="KU54Ymaz2hn-1vnR_D7c-34" value="Object" style="edgeLabel;html=1;align=center;verticalAlign=middle;resizable=0;points=[];" vertex="1" connectable="0" parent="KU54Ymaz2hn-1vnR_D7c-23">
          <mxGeometry x="0.1093" y="-1" relative="1" as="geometry">
            <mxPoint as="offset" />
          </mxGeometry>
        </mxCell>
        <mxCell id="KU54Ymaz2hn-1vnR_D7c-25" value="" style="endArrow=none;dashed=1;html=1;rounded=0;" edge="1" parent="WIyWlLk6GJQsqaUBKTNV-1" source="KU54Ymaz2hn-1vnR_D7c-9" target="KU54Ymaz2hn-1vnR_D7c-8">
          <mxGeometry width="50" height="50" relative="1" as="geometry">
            <mxPoint x="470" y="230" as="sourcePoint" />
            <mxPoint x="190" y="185" as="targetPoint" />
            <Array as="points">
              <mxPoint x="420" y="240" />
            </Array>
          </mxGeometry>
        </mxCell>
        <mxCell id="KU54Ymaz2hn-1vnR_D7c-35" value="Object" style="edgeLabel;html=1;align=center;verticalAlign=middle;resizable=0;points=[];" vertex="1" connectable="0" parent="KU54Ymaz2hn-1vnR_D7c-25">
          <mxGeometry x="-0.2343" y="-2" relative="1" as="geometry">
            <mxPoint as="offset" />
          </mxGeometry>
        </mxCell>
        <mxCell id="KU54Ymaz2hn-1vnR_D7c-28" value="android_ios_phone" style="swimlane;fontStyle=2;align=center;verticalAlign=top;childLayout=stackLayout;horizontal=1;startSize=26;horizontalStack=0;resizeParent=1;resizeLast=0;collapsible=1;marginBottom=0;rounded=0;shadow=0;strokeWidth=1;" vertex="1" parent="WIyWlLk6GJQsqaUBKTNV-1">
          <mxGeometry x="690" y="214" width="150" height="104" as="geometry">
            <mxRectangle x="230" y="140" width="160" height="26" as="alternateBounds" />
          </mxGeometry>
        </mxCell>
        <mxCell id="KU54Ymaz2hn-1vnR_D7c-29" value="lauch_stream_ad_id" style="text;align=left;verticalAlign=top;spacingLeft=4;spacingRight=4;overflow=hidden;rotatable=0;points=[[0,0.5],[1,0.5]];portConstraint=eastwest;strokeColor=default;" vertex="1" parent="KU54Ymaz2hn-1vnR_D7c-28">
          <mxGeometry y="26" width="150" height="26" as="geometry" />
        </mxCell>
        <mxCell id="KU54Ymaz2hn-1vnR_D7c-30" value="resume_stream_ad_id" style="text;align=left;verticalAlign=top;spacingLeft=4;spacingRight=4;overflow=hidden;rotatable=0;points=[[0,0.5],[1,0.5]];portConstraint=eastwest;strokeColor=default;" vertex="1" parent="KU54Ymaz2hn-1vnR_D7c-28">
          <mxGeometry y="52" width="150" height="26" as="geometry" />
        </mxCell>
        <mxCell id="KU54Ymaz2hn-1vnR_D7c-31" value="landing_ad_id" style="text;align=left;verticalAlign=top;spacingLeft=4;spacingRight=4;overflow=hidden;rotatable=0;points=[[0,0.5],[1,0.5]];portConstraint=eastwest;strokeColor=none;" vertex="1" parent="KU54Ymaz2hn-1vnR_D7c-28">
          <mxGeometry y="78" width="150" height="26" as="geometry" />
        </mxCell>
        <mxCell id="KU54Ymaz2hn-1vnR_D7c-38" value="" style="endArrow=none;dashed=1;html=1;rounded=0;" edge="1" parent="WIyWlLk6GJQsqaUBKTNV-1" source="KU54Ymaz2hn-1vnR_D7c-21" target="KU54Ymaz2hn-1vnR_D7c-28">
          <mxGeometry width="50" height="50" relative="1" as="geometry">
            <mxPoint x="520" y="290" as="sourcePoint" />
            <mxPoint x="670" y="305" as="targetPoint" />
            <Array as="points">
              <mxPoint x="660" y="300" />
            </Array>
          </mxGeometry>
        </mxCell>
        <mxCell id="KU54Ymaz2hn-1vnR_D7c-73" value="Object" style="edgeLabel;html=1;align=center;verticalAlign=middle;resizable=0;points=[];" vertex="1" connectable="0" parent="KU54Ymaz2hn-1vnR_D7c-38">
          <mxGeometry x="-0.1453" y="1" relative="1" as="geometry">
            <mxPoint as="offset" />
          </mxGeometry>
        </mxCell>
        <mxCell id="KU54Ymaz2hn-1vnR_D7c-41" value="preview_time" style="swimlane;fontStyle=2;align=center;verticalAlign=top;childLayout=stackLayout;horizontal=1;startSize=26;horizontalStack=0;resizeParent=1;resizeLast=0;collapsible=1;marginBottom=0;rounded=0;shadow=0;strokeWidth=1;" vertex="1" parent="WIyWlLk6GJQsqaUBKTNV-1">
          <mxGeometry x="750" y="344" width="100" height="80" as="geometry">
            <mxRectangle x="230" y="140" width="160" height="26" as="alternateBounds" />
          </mxGeometry>
        </mxCell>
        <mxCell id="KU54Ymaz2hn-1vnR_D7c-42" value="premium" style="text;align=left;verticalAlign=top;spacingLeft=4;spacingRight=4;overflow=hidden;rotatable=0;points=[[0,0.5],[1,0.5]];portConstraint=eastwest;strokeColor=default;" vertex="1" parent="KU54Ymaz2hn-1vnR_D7c-41">
          <mxGeometry y="26" width="100" height="26" as="geometry" />
        </mxCell>
        <mxCell id="KU54Ymaz2hn-1vnR_D7c-43" value="free" style="text;align=left;verticalAlign=top;spacingLeft=4;spacingRight=4;overflow=hidden;rotatable=0;points=[[0,0.5],[1,0.5]];portConstraint=eastwest;" vertex="1" parent="KU54Ymaz2hn-1vnR_D7c-41">
          <mxGeometry y="52" width="100" height="26" as="geometry" />
        </mxCell>
        <mxCell id="KU54Ymaz2hn-1vnR_D7c-44" value="" style="endArrow=none;dashed=1;html=1;rounded=0;entryX=0.007;entryY=0.216;entryDx=0;entryDy=0;entryPerimeter=0;" edge="1" parent="WIyWlLk6GJQsqaUBKTNV-1" source="KU54Ymaz2hn-1vnR_D7c-27" target="KU54Ymaz2hn-1vnR_D7c-41">
          <mxGeometry width="50" height="50" relative="1" as="geometry">
            <mxPoint x="550" y="330" as="sourcePoint" />
            <mxPoint x="600" y="280" as="targetPoint" />
            <Array as="points">
              <mxPoint x="690" y="350" />
            </Array>
          </mxGeometry>
        </mxCell>
        <mxCell id="KU54Ymaz2hn-1vnR_D7c-45" value="Object" style="edgeLabel;html=1;align=center;verticalAlign=middle;resizable=0;points=[];" vertex="1" connectable="0" parent="KU54Ymaz2hn-1vnR_D7c-44">
          <mxGeometry x="-0.0825" relative="1" as="geometry">
            <mxPoint as="offset" />
          </mxGeometry>
        </mxCell>
        <mxCell id="KU54Ymaz2hn-1vnR_D7c-53" value="180" style="text;align=left;verticalAlign=top;spacingLeft=4;spacingRight=4;overflow=hidden;rotatable=0;points=[[0,0.5],[1,0.5]];portConstraint=eastwest;strokeColor=default;" vertex="1" parent="WIyWlLk6GJQsqaUBKTNV-1">
          <mxGeometry x="890" y="360" width="40" height="26" as="geometry" />
        </mxCell>
        <mxCell id="KU54Ymaz2hn-1vnR_D7c-54" value="" style="edgeStyle=orthogonalEdgeStyle;rounded=0;orthogonalLoop=1;jettySize=auto;html=1;" edge="1" parent="WIyWlLk6GJQsqaUBKTNV-1" source="KU54Ymaz2hn-1vnR_D7c-42" target="KU54Ymaz2hn-1vnR_D7c-53">
          <mxGeometry relative="1" as="geometry" />
        </mxCell>
        <mxCell id="KU54Ymaz2hn-1vnR_D7c-55" value="60" style="text;align=left;verticalAlign=top;spacingLeft=4;spacingRight=4;overflow=hidden;rotatable=0;points=[[0,0.5],[1,0.5]];portConstraint=eastwest;strokeColor=default;" vertex="1" parent="WIyWlLk6GJQsqaUBKTNV-1">
          <mxGeometry x="890" y="410" width="40" height="26" as="geometry" />
        </mxCell>
        <mxCell id="KU54Ymaz2hn-1vnR_D7c-56" value="" style="edgeStyle=orthogonalEdgeStyle;rounded=0;orthogonalLoop=1;jettySize=auto;html=1;" edge="1" parent="WIyWlLk6GJQsqaUBKTNV-1" source="KU54Ymaz2hn-1vnR_D7c-43" target="KU54Ymaz2hn-1vnR_D7c-55">
          <mxGeometry relative="1" as="geometry" />
        </mxCell>
        <mxCell id="KU54Ymaz2hn-1vnR_D7c-59" value="boolean" style="whiteSpace=wrap;html=1;align=left;verticalAlign=top;fillColor=none;gradientColor=none;spacingLeft=4;spacingRight=4;" vertex="1" parent="WIyWlLk6GJQsqaUBKTNV-1">
          <mxGeometry x="610" y="100" width="70" height="30" as="geometry" />
        </mxCell>
        <mxCell id="KU54Ymaz2hn-1vnR_D7c-60" value="" style="edgeStyle=orthogonalEdgeStyle;rounded=0;orthogonalLoop=1;jettySize=auto;html=1;" edge="1" parent="WIyWlLk6GJQsqaUBKTNV-1" source="KU54Ymaz2hn-1vnR_D7c-10" target="KU54Ymaz2hn-1vnR_D7c-59">
          <mxGeometry relative="1" as="geometry" />
        </mxCell>
        <mxCell id="KU54Ymaz2hn-1vnR_D7c-62" value="quality_stream" style="swimlane;fontStyle=2;align=center;verticalAlign=top;childLayout=stackLayout;horizontal=1;startSize=26;horizontalStack=0;resizeParent=1;resizeLast=0;collapsible=1;marginBottom=0;rounded=0;shadow=0;strokeWidth=1;" vertex="1" parent="WIyWlLk6GJQsqaUBKTNV-1">
          <mxGeometry x="715" y="110" width="100" height="80" as="geometry">
            <mxRectangle x="230" y="140" width="160" height="26" as="alternateBounds" />
          </mxGeometry>
        </mxCell>
        <mxCell id="KU54Ymaz2hn-1vnR_D7c-63" value="premium" style="text;align=left;verticalAlign=top;spacingLeft=4;spacingRight=4;overflow=hidden;rotatable=0;points=[[0,0.5],[1,0.5]];portConstraint=eastwest;strokeColor=default;" vertex="1" parent="KU54Ymaz2hn-1vnR_D7c-62">
          <mxGeometry y="26" width="100" height="26" as="geometry" />
        </mxCell>
        <mxCell id="KU54Ymaz2hn-1vnR_D7c-64" value="free" style="text;align=left;verticalAlign=top;spacingLeft=4;spacingRight=4;overflow=hidden;rotatable=0;points=[[0,0.5],[1,0.5]];portConstraint=eastwest;" vertex="1" parent="KU54Ymaz2hn-1vnR_D7c-62">
          <mxGeometry y="52" width="100" height="26" as="geometry" />
        </mxCell>
        <mxCell id="KU54Ymaz2hn-1vnR_D7c-66" value="" style="endArrow=none;dashed=1;html=1;rounded=0;entryX=0;entryY=0.25;entryDx=0;entryDy=0;" edge="1" parent="WIyWlLk6GJQsqaUBKTNV-1" source="KU54Ymaz2hn-1vnR_D7c-17" target="KU54Ymaz2hn-1vnR_D7c-62">
          <mxGeometry width="50" height="50" relative="1" as="geometry">
            <mxPoint x="610" y="206" as="sourcePoint" />
            <mxPoint x="660" y="156" as="targetPoint" />
            <Array as="points">
              <mxPoint x="640" y="165" />
            </Array>
          </mxGeometry>
        </mxCell>
        <mxCell id="KU54Ymaz2hn-1vnR_D7c-72" value="Object" style="edgeLabel;html=1;align=center;verticalAlign=middle;resizable=0;points=[];" vertex="1" connectable="0" parent="KU54Ymaz2hn-1vnR_D7c-66">
          <mxGeometry x="0.0354" relative="1" as="geometry">
            <mxPoint as="offset" />
          </mxGeometry>
        </mxCell>
        <mxCell id="KU54Ymaz2hn-1vnR_D7c-68" value="720p" style="whiteSpace=wrap;html=1;align=left;verticalAlign=top;fillColor=none;gradientColor=none;spacingLeft=4;spacingRight=4;" vertex="1" parent="WIyWlLk6GJQsqaUBKTNV-1">
          <mxGeometry x="860" y="110" width="50" height="30" as="geometry" />
        </mxCell>
        <mxCell id="KU54Ymaz2hn-1vnR_D7c-69" value="" style="edgeStyle=orthogonalEdgeStyle;rounded=0;orthogonalLoop=1;jettySize=auto;html=1;" edge="1" parent="WIyWlLk6GJQsqaUBKTNV-1" source="KU54Ymaz2hn-1vnR_D7c-63" target="KU54Ymaz2hn-1vnR_D7c-68">
          <mxGeometry relative="1" as="geometry" />
        </mxCell>
        <mxCell id="KU54Ymaz2hn-1vnR_D7c-70" value="1080p" style="whiteSpace=wrap;html=1;" vertex="1" parent="WIyWlLk6GJQsqaUBKTNV-1">
          <mxGeometry x="860" y="152" width="50" height="28" as="geometry" />
        </mxCell>
        <mxCell id="KU54Ymaz2hn-1vnR_D7c-71" value="" style="edgeStyle=orthogonalEdgeStyle;rounded=0;orthogonalLoop=1;jettySize=auto;html=1;" edge="1" parent="WIyWlLk6GJQsqaUBKTNV-1" source="KU54Ymaz2hn-1vnR_D7c-64" target="KU54Ymaz2hn-1vnR_D7c-70">
          <mxGeometry relative="1" as="geometry" />
        </mxCell>
        <mxCell id="KU54Ymaz2hn-1vnR_D7c-74" value="Status" style="swimlane;fontStyle=2;align=center;verticalAlign=top;childLayout=stackLayout;horizontal=1;startSize=26;horizontalStack=0;resizeParent=1;resizeLast=0;collapsible=1;marginBottom=0;rounded=0;shadow=0;strokeWidth=1;" vertex="1" parent="WIyWlLk6GJQsqaUBKTNV-1">
          <mxGeometry x="240" y="430" width="160" height="160" as="geometry">
            <mxRectangle x="230" y="140" width="160" height="26" as="alternateBounds" />
          </mxGeometry>
        </mxCell>
        <mxCell id="KU54Ymaz2hn-1vnR_D7c-75" value="subscription" style="text;align=left;verticalAlign=top;spacingLeft=4;spacingRight=4;overflow=hidden;rotatable=0;points=[[0,0.5],[1,0.5]];portConstraint=eastwest;" vertex="1" parent="KU54Ymaz2hn-1vnR_D7c-74">
          <mxGeometry y="26" width="160" height="26" as="geometry" />
        </mxCell>
        <mxCell id="KU54Ymaz2hn-1vnR_D7c-76" value="identity" style="text;align=left;verticalAlign=top;spacingLeft=4;spacingRight=4;overflow=hidden;rotatable=0;points=[[0,0.5],[1,0.5]];portConstraint=eastwest;rounded=0;shadow=0;html=0;strokeColor=default;" vertex="1" parent="KU54Ymaz2hn-1vnR_D7c-74">
          <mxGeometry y="52" width="160" height="26" as="geometry" />
        </mxCell>
        <mxCell id="KU54Ymaz2hn-1vnR_D7c-83" value="AccessToken" style="text;align=left;verticalAlign=top;spacingLeft=4;spacingRight=4;overflow=hidden;rotatable=0;points=[[0,0.5],[1,0.5]];portConstraint=eastwest;rounded=0;shadow=0;html=0;strokeColor=default;" vertex="1" parent="KU54Ymaz2hn-1vnR_D7c-74">
          <mxGeometry y="78" width="160" height="26" as="geometry" />
        </mxCell>
        <mxCell id="KU54Ymaz2hn-1vnR_D7c-84" value="token" style="text;align=left;verticalAlign=top;spacingLeft=4;spacingRight=4;overflow=hidden;rotatable=0;points=[[0,0.5],[1,0.5]];portConstraint=eastwest;rounded=0;shadow=0;html=0;strokeColor=default;" vertex="1" parent="KU54Ymaz2hn-1vnR_D7c-74">
          <mxGeometry y="104" width="160" height="26" as="geometry" />
        </mxCell>
        <mxCell id="KU54Ymaz2hn-1vnR_D7c-85" value="user_tracking_id" style="text;align=left;verticalAlign=top;spacingLeft=4;spacingRight=4;overflow=hidden;rotatable=0;points=[[0,0.5],[1,0.5]];portConstraint=eastwest;rounded=0;shadow=0;html=0;strokeColor=none;" vertex="1" parent="KU54Ymaz2hn-1vnR_D7c-74">
          <mxGeometry y="130" width="160" height="26" as="geometry" />
        </mxCell>
        <mxCell id="KU54Ymaz2hn-1vnR_D7c-88" value="boolean" style="whiteSpace=wrap;html=1;" vertex="1" parent="WIyWlLk6GJQsqaUBKTNV-1">
          <mxGeometry x="440" y="436" width="70" height="24" as="geometry" />
        </mxCell>
        <mxCell id="KU54Ymaz2hn-1vnR_D7c-89" value="" style="edgeStyle=orthogonalEdgeStyle;rounded=0;orthogonalLoop=1;jettySize=auto;html=1;" edge="1" parent="WIyWlLk6GJQsqaUBKTNV-1" source="KU54Ymaz2hn-1vnR_D7c-75" target="KU54Ymaz2hn-1vnR_D7c-88">
          <mxGeometry relative="1" as="geometry" />
        </mxCell>
      </root>
    </mxGraphModel>
  </diagram>
</mxfile>
